<?xml version="1.0" encoding="UTF-8" standalone="no"?>
<!-- Created with Inkscape (http://www.inkscape.org/) -->

<svg
   width="23.719183mm"
   height="60.341537mm"
   viewBox="0 0 23.719183 60.341538"
   version="1.1"
   id="svg1"
   xml:space="preserve"
   sodipodi:docname="collins.svg"
   inkscape:version="1.3.2 (091e20e, 2023-11-25)"
   xmlns:inkscape="http://www.inkscape.org/namespaces/inkscape"
   xmlns:sodipodi="http://sodipodi.sourceforge.net/DTD/sodipodi-0.dtd"
   xmlns:xlink="http://www.w3.org/1999/xlink"
   xmlns="http://www.w3.org/2000/svg"
   xmlns:svg="http://www.w3.org/2000/svg"><sodipodi:namedview
     id="namedview1"
     pagecolor="#ffffff"
     bordercolor="#000000"
     borderopacity="0.25"
     inkscape:showpageshadow="2"
     inkscape:pageopacity="0.0"
     inkscape:pagecheckerboard="0"
     inkscape:deskcolor="#d1d1d1"
     inkscape:document-units="mm"
     inkscape:zoom="3.5934041"
     inkscape:cx="53.013799"
     inkscape:cy="74.998524"
     inkscape:window-width="1312"
     inkscape:window-height="860"
     inkscape:window-x="568"
     inkscape:window-y="168"
     inkscape:window-maximized="0"
     inkscape:current-layer="svg1" /><defs
     id="defs1"><clipPath
       clipPathUnits="userSpaceOnUse"
       id="clipPath2"><g
         inkscape:label="Clip"
         id="use2"
         xlink:ref="#inner" /></clipPath></defs><g
     id="layer1"
     inkscape:label="back"><path
       style="display:inline;fill:#000000;fill-opacity:0;stroke:#000000;stroke-width:0.264999;stroke-linejoin:round;stroke-dasharray:none;stroke-opacity:1"
       d="m -87.123674,-3.3164846 23.251975,0.1649746 c -0.328306,19.460319 0.515668,38.949419 0.06804,58.407356 -0.01807,0.785287 -0.672092,1.4298 -1.457953,1.43745 -4.592021,0.0447 -11.64904,0.06501 -20.519716,0.06676 -0.703031,1.39e-4 -1.274484,-0.5698 -1.276285,-1.272837 -0.05022,-19.600954 -0.04847,-39.202555 -0.06607,-58.8037016 z"
       id="path5"
       transform="translate(87.256173,3.448984)"
       inkscape:label="outer" /></g><g
     id="layer2"
     inkscape:label="details" /><g
     id="g2"
     clip-path="url(#clipPath2)"
     style="display:inline"
     transform="translate(-82.765466,-36.149161)"
     inkscape:label="mixers" /><g
     id="layer3"
     style="display:inline"
     transform="translate(-82.765466,-36.149161)"
     inkscape:label="front"><path
       style="display:inline;fill:#000000;fill-opacity:0;stroke:#000000;stroke-width:0.264999;stroke-linejoin:round;stroke-dasharray:none;stroke-opacity:1"
       d="m -86.39427,-3.3000103 c 0.224557,17.8161603 -0.212491,35.6437893 0.08981,53.4588823 0.01331,0.78442 0.663558,1.42067 1.450401,1.419343 6.229623,-0.01051 12.459965,-0.101778 18.689539,-0.168285 0.841657,-0.009 1.524084,-0.698111 1.524237,-1.539884 l 0.0096,-53.0380473"
       id="path6"
       transform="translate(170.02164,39.598145)"
       inkscape:label="inner" /></g></svg>
